<svg width="1230" height="256" viewBox="0 0 1230 256" fill="none" xmlns="http://www.w3.org/2000/svg">
<path d="M402.656 205.684C402.656 203.012 401.056 202.682 398.847 202.716C389.283 202.798 379.684 202.402 370.136 202.962C364.183 203.293 360.851 201.248 357.949 196.037C350.363 182.25 342.101 168.842 334.236 155.221C332.849 152.813 331.316 152.022 328.628 152.072C320.828 152.237 312.995 152.318 305.227 152.072C301.468 151.94 299.488 153.341 297.691 156.573C290.056 170.162 282.057 183.536 274.439 197.141C272.064 201.38 269.128 203.26 264.181 202.929C263.225 202.88 262.252 202.814 261.295 202.798V62.1009C261.295 30.4049 235.537 4.64623 203.841 4.64623C172.161 4.64623 146.403 30.4049 146.403 62.1009V203.088C143.583 203.121 141.241 203.204 139.643 203.286C133.656 203.616 130.324 201.57 127.455 196.36C119.836 182.573 111.557 169.166 103.708 155.545C102.356 153.137 100.789 152.345 98.1014 152.394C90.3014 152.56 82.5001 152.642 74.6841 152.394C70.9414 152.262 68.9614 153.665 67.1641 156.897C59.5454 170.485 51.5308 183.86 43.9121 197.465C41.5374 201.702 38.5854 203.582 33.6881 203.253C27.5041 202.873 21.3028 203.088 15.1188 203.056H0.95343V245.288C19.0601 245.288 36.7388 245.206 54.4001 245.338C59.4135 245.388 62.7441 243.293 65.0694 238.989C67.8734 233.844 70.7428 228.714 73.6948 223.602C77.6694 216.628 81.7588 209.734 86.3094 201.901C92.6428 213.181 99.0414 223.273 104.169 233.976C108.309 242.584 113.916 245.8 123.531 245.305C128.857 245.041 137.136 244.925 146.403 244.893V244.878C155.935 244.713 171.073 244.762 182.255 244.796V62.1009C182.255 50.1782 191.935 40.4982 203.841 40.4982C215.764 40.4982 225.444 50.1782 225.444 62.1009V244.862H245.645C250.857 244.894 256.084 244.73 261.295 244.928V244.932C270.943 244.965 279.435 244.981 284.927 245.014C289.94 245.064 293.288 242.97 295.597 238.665C298.384 233.52 301.285 228.392 304.205 223.28C308.196 216.304 312.285 209.41 316.837 201.577C323.171 212.857 329.552 222.949 334.697 233.652C338.836 242.261 344.443 245.476 354.041 244.981C369.888 244.157 385.836 244.768 402.656 244.768C402.656 231.228 402.623 218.464 402.656 205.684Z" fill="#680307"/>
<path d="M452.05 32.8796H466.212L499.51 114.212H500.658L533.957 32.8796H548.118V130.861H537.018V56.418H536.062L505.442 130.861H494.726L464.107 56.418H463.15V130.861H452.05V32.8796ZM592.001 132.583C587.345 132.583 583.118 131.706 579.323 129.952C575.527 128.166 572.513 125.598 570.281 122.249C568.048 118.868 566.932 114.786 566.932 110.001C566.932 105.791 567.761 102.379 569.42 99.7631C571.078 97.1159 573.295 95.0427 576.07 93.5436C578.845 92.0446 581.906 90.9283 585.255 90.1947C588.636 89.4292 592.033 88.8232 595.446 88.3767C599.911 87.8026 603.531 87.372 606.306 87.0849C609.113 86.766 611.154 86.2397 612.43 85.5061C613.738 84.7726 614.391 83.4968 614.391 81.6787V81.296C614.391 76.5756 613.1 72.9077 610.516 70.2923C607.965 67.6769 604.089 66.3692 598.89 66.3692C593.5 66.3692 589.274 67.5493 586.212 69.9095C583.15 72.2698 580.997 74.7895 579.754 77.4686L569.037 73.6412C570.951 69.176 573.502 65.6994 576.692 63.2116C579.913 60.6919 583.421 58.9377 587.217 57.949C591.044 56.9283 594.808 56.418 598.508 56.418C600.868 56.418 603.579 56.7051 606.641 57.2792C609.735 57.8214 612.717 58.9536 615.587 60.676C618.49 62.3983 620.898 64.9977 622.812 68.4743C624.725 71.9508 625.682 76.6075 625.682 82.4442V130.861H614.391V120.909H613.817C613.052 122.504 611.776 124.211 609.99 126.029C608.204 127.847 605.828 129.393 602.861 130.669C599.895 131.945 596.275 132.583 592.001 132.583ZM593.724 122.44C598.189 122.44 601.952 121.563 605.014 119.809C608.108 118.055 610.436 115.79 611.999 113.015C613.594 110.241 614.391 107.322 614.391 104.26V93.9264C613.913 94.5005 612.86 95.0268 611.234 95.5052C609.639 95.9517 607.789 96.3504 605.684 96.7012C603.611 97.0202 601.586 97.3072 599.608 97.5624C597.663 97.7857 596.084 97.977 594.872 98.1365C591.937 98.5192 589.194 99.1412 586.643 100.002C584.123 100.832 582.082 102.091 580.519 103.782C578.988 105.44 578.223 107.705 578.223 110.576C578.223 114.499 579.674 117.465 582.576 119.474C585.511 121.452 589.226 122.44 593.724 122.44ZM644.185 130.861V122.249L685.904 68.6656V67.9002H645.525V57.3748H700.448V66.3692L659.877 119.57V120.335H701.787V130.861H644.185ZM740.803 132.583C736.146 132.583 731.92 131.706 728.125 129.952C724.329 128.166 721.315 125.598 719.082 122.249C716.85 118.868 715.733 114.786 715.733 110.001C715.733 105.791 716.563 102.379 718.221 99.7631C719.88 97.1159 722.096 95.0427 724.871 93.5436C727.646 92.0446 730.708 90.9283 734.057 90.1947C737.438 89.4292 740.835 88.8232 744.247 88.3767C748.713 87.8026 752.333 87.372 755.108 87.0849C757.914 86.766 759.956 86.2397 761.231 85.5061C762.539 84.7726 763.193 83.4968 763.193 81.6787V81.296C763.193 76.5756 761.901 72.9077 759.318 70.2923C756.766 67.6769 752.891 66.3692 747.692 66.3692C742.302 66.3692 738.076 67.5493 735.014 69.9095C731.952 72.2698 729.799 74.7895 728.555 77.4686L717.838 73.6412C719.752 69.176 722.304 65.6994 725.493 63.2116C728.715 60.6919 732.223 58.9377 736.019 57.949C739.846 56.9283 743.61 56.418 747.309 56.418C749.67 56.418 752.381 56.7051 755.443 57.2792C758.536 57.8214 761.519 58.9536 764.389 60.676C767.291 62.3983 769.7 64.9977 771.613 68.4743C773.527 71.9508 774.484 76.6075 774.484 82.4442V130.861H763.193V120.909H762.619C761.853 122.504 760.578 124.211 758.792 126.029C757.005 127.847 754.629 129.393 751.663 130.669C748.697 131.945 745.077 132.583 740.803 132.583ZM742.525 122.44C746.99 122.44 750.754 121.563 753.816 119.809C756.91 118.055 759.238 115.79 760.801 113.015C762.396 110.241 763.193 107.322 763.193 104.26V93.9264C762.715 94.5005 761.662 95.0268 760.035 95.5052C758.441 95.9517 756.591 96.3504 754.486 96.7012C752.413 97.0202 750.387 97.3072 748.41 97.5624C746.464 97.7857 744.885 97.977 743.673 98.1365C740.739 98.5192 737.996 99.1412 735.444 100.002C732.925 100.832 730.883 102.091 729.321 103.782C727.79 105.44 727.024 107.705 727.024 110.576C727.024 114.499 728.475 117.465 731.378 119.474C734.312 121.452 738.028 122.44 742.525 122.44ZM799.733 158.418C797.819 158.418 796.112 158.258 794.613 157.939C793.114 157.652 792.078 157.365 791.504 157.078L794.374 147.127C797.117 147.829 799.541 148.084 801.646 147.893C803.751 147.701 805.617 146.76 807.244 145.07C808.902 143.411 810.417 140.716 811.789 136.984L813.894 131.243L786.719 57.3748H798.967L819.252 115.934H820.018L840.303 57.3748H852.55L821.357 141.577C819.954 145.373 818.216 148.514 816.142 151.002C814.069 153.522 811.661 155.388 808.918 156.6C806.207 157.812 803.145 158.418 799.733 158.418ZM886.841 132.583C882.185 132.583 877.959 131.706 874.163 129.952C870.368 128.166 867.354 125.598 865.121 122.249C862.888 118.868 861.772 114.786 861.772 110.001C861.772 105.791 862.601 102.379 864.26 99.7631C865.918 97.1159 868.135 95.0427 870.91 93.5436C873.685 92.0446 876.747 90.9283 880.096 90.1947C883.477 89.4292 886.873 88.8232 890.286 88.3767C894.751 87.8026 898.371 87.372 901.146 87.0849C903.953 86.766 905.994 86.2397 907.27 85.5061C908.578 84.7726 909.232 83.4968 909.232 81.6787V81.296C909.232 76.5756 907.94 72.9077 905.356 70.2923C902.805 67.6769 898.93 66.3692 893.731 66.3692C888.341 66.3692 884.114 67.5493 881.053 69.9095C877.991 72.2698 875.838 74.7895 874.594 77.4686L863.877 73.6412C865.791 69.176 868.342 65.6994 871.532 63.2116C874.753 60.6919 878.262 58.9377 882.057 57.949C885.885 56.9283 889.648 56.418 893.348 56.418C895.708 56.418 898.419 56.7051 901.481 57.2792C904.575 57.8214 907.557 58.9536 910.428 60.676C913.33 62.3983 915.738 64.9977 917.652 68.4743C919.566 71.9508 920.522 76.6075 920.522 82.4442V130.861H909.232V120.909H908.658C907.892 122.504 906.616 124.211 904.83 126.029C903.044 127.847 900.668 129.393 897.702 130.669C894.735 131.945 891.115 132.583 886.841 132.583ZM888.564 122.44C893.029 122.44 896.793 121.563 899.855 119.809C902.948 118.055 905.277 115.79 906.84 113.015C908.434 110.241 909.232 107.322 909.232 104.26V93.9264C908.753 94.5005 907.701 95.0268 906.074 95.5052C904.479 95.9517 902.629 96.3504 900.524 96.7012C898.451 97.0202 896.426 97.3072 894.448 97.5624C892.503 97.7857 890.924 97.977 889.712 98.1365C886.778 98.5192 884.035 99.1412 881.483 100.002C878.963 100.832 876.922 102.091 875.359 103.782C873.828 105.44 873.063 107.705 873.063 110.576C873.063 114.499 874.514 117.465 877.417 119.474C880.351 121.452 884.067 122.44 888.564 122.44ZM980.553 32.8796H994.714L1028.01 114.212H1029.16L1062.46 32.8796H1076.62V130.861H1065.52V56.418H1064.56L1033.94 130.861H1023.23L992.609 56.418H991.652V130.861H980.553V32.8796ZM1120.5 132.583C1115.85 132.583 1111.62 131.706 1107.83 129.952C1104.03 128.166 1101.02 125.598 1098.78 122.249C1096.55 118.868 1095.43 114.786 1095.43 110.001C1095.43 105.791 1096.26 102.379 1097.92 99.7631C1099.58 97.1159 1101.8 95.0427 1104.57 93.5436C1107.35 92.0446 1110.41 90.9283 1113.76 90.1947C1117.14 89.4292 1120.54 88.8232 1123.95 88.3767C1128.41 87.8026 1132.03 87.372 1134.81 87.0849C1137.62 86.766 1139.66 86.2397 1140.93 85.5061C1142.24 84.7726 1142.89 83.4968 1142.89 81.6787V81.296C1142.89 76.5756 1141.6 72.9077 1139.02 70.2923C1136.47 67.6769 1132.59 66.3692 1127.39 66.3692C1122 66.3692 1117.78 67.5493 1114.71 69.9095C1111.65 72.2698 1109.5 74.7895 1108.26 77.4686L1097.54 73.6412C1099.45 69.176 1102 65.6994 1105.19 63.2116C1108.42 60.6919 1111.92 58.9377 1115.72 57.949C1119.55 56.9283 1123.31 56.418 1127.01 56.418C1129.37 56.418 1132.08 56.7051 1135.14 57.2792C1138.24 57.8214 1141.22 58.9536 1144.09 60.676C1146.99 62.3983 1149.4 64.9977 1151.31 68.4743C1153.23 71.9508 1154.18 76.6075 1154.18 82.4442V130.861H1142.89V120.909H1142.32C1141.55 122.504 1140.28 124.211 1138.49 126.029C1136.71 127.847 1134.33 129.393 1131.36 130.669C1128.4 131.945 1124.78 132.583 1120.5 132.583ZM1122.23 122.44C1126.69 122.44 1130.45 121.563 1133.52 119.809C1136.61 118.055 1138.94 115.79 1140.5 113.015C1142.1 110.241 1142.89 107.322 1142.89 104.26V93.9264C1142.42 94.5005 1141.36 95.0268 1139.74 95.5052C1138.14 95.9517 1136.29 96.3504 1134.19 96.7012C1132.11 97.0202 1130.09 97.3072 1128.11 97.5624C1126.16 97.7857 1124.59 97.977 1123.37 98.1365C1120.44 98.5192 1117.7 99.1412 1115.15 100.002C1112.63 100.832 1110.58 102.091 1109.02 103.782C1107.49 105.44 1106.72 107.705 1106.72 110.576C1106.72 114.499 1108.18 117.465 1111.08 119.474C1114.01 121.452 1117.73 122.44 1122.23 122.44ZM1186.08 32.8796V130.861H1174.79V32.8796H1186.08ZM1218.05 32.8796V130.861H1206.76V32.8796H1218.05Z" fill="#680307"/>
<path d="M428.762 230.141C428.762 228.445 428.903 226.643 429.186 224.735C429.54 222.756 430.034 220.672 430.67 218.481C431.377 216.22 432.225 213.852 433.214 211.379L440.847 214.347C440.14 216.326 439.504 218.198 438.939 219.965C438.444 221.732 438.055 223.392 437.772 224.947C437.56 226.502 437.454 227.986 437.454 229.399C437.454 232.791 438.338 235.724 440.105 238.198C441.942 240.671 444.451 242.579 447.631 243.922C450.811 245.265 454.521 245.936 458.761 245.936C463.92 245.936 468.16 245.194 471.482 243.71C474.874 242.226 477.489 239.964 479.326 236.926C481.234 233.887 482.506 230.035 483.142 225.371C483.778 220.636 483.99 215.089 483.778 208.729L481.764 154.349H490.562L492.364 210.955C492.506 215.69 492.294 220.248 491.728 224.629C491.234 228.94 490.244 232.897 488.76 236.502C487.276 240.176 485.227 243.356 482.612 246.042C479.997 248.798 476.711 250.918 472.754 252.402C468.796 253.886 464.026 254.628 458.443 254.628C454.698 254.628 451.058 254.134 447.525 253.144C443.991 252.155 440.811 250.671 437.984 248.692C435.158 246.713 432.896 244.169 431.2 241.06C429.575 238.021 428.762 234.381 428.762 230.141ZM505.436 254.416L503.528 245.724C507.768 245.159 511.655 244.346 515.188 243.286C518.792 242.296 521.867 240.848 524.411 238.94C527.025 237.032 529.039 234.523 530.453 231.413C531.866 228.304 532.573 224.417 532.573 219.753C532.573 214.947 531.69 210.955 529.923 207.775C528.156 204.594 525.859 203.004 523.033 203.004C521.549 203.004 520.17 203.57 518.898 204.7C517.626 205.831 516.566 207.351 515.718 209.259C514.941 211.167 514.552 213.251 514.552 215.513C514.552 216.785 514.835 217.845 515.4 218.693C515.966 219.47 516.778 220.106 517.838 220.601C518.969 221.025 520.382 221.343 522.079 221.555C523.775 221.767 525.753 221.873 528.015 221.873H550.382C551.866 221.873 552.926 222.297 553.562 223.145C554.268 223.922 554.622 224.876 554.622 226.007C554.622 227.138 554.127 228.198 553.138 229.187C552.148 230.106 550.876 230.565 549.322 230.565H523.987C520.807 230.565 517.838 230.106 515.082 229.187C512.397 228.269 510.206 226.855 508.51 224.947C506.885 222.968 506.072 220.389 506.072 217.209C506.072 214.241 506.531 211.414 507.45 208.729C508.369 205.972 509.605 203.534 511.16 201.414C512.786 199.224 514.658 197.492 516.778 196.22C518.969 194.948 521.337 194.312 523.881 194.312C527.131 194.312 530.029 195.266 532.573 197.174C535.117 199.082 537.131 201.98 538.615 205.866C540.099 209.683 540.841 214.523 540.841 220.389C540.841 226.961 539.499 232.615 536.813 237.35C534.198 242.155 530.241 245.971 524.941 248.798C519.711 251.625 513.21 253.497 505.436 254.416ZM549.288 230.565L550.348 221.873H578.969C580.453 221.873 581.513 222.297 582.149 223.145C582.855 223.922 583.209 224.876 583.209 226.007C583.209 227.138 582.714 228.198 581.725 229.187C580.735 230.106 579.463 230.565 577.909 230.565H549.288ZM577.859 230.565L578.919 221.873C580.898 221.873 582.558 221.449 583.901 220.601C585.244 219.753 586.551 218.34 587.823 216.361C589.095 214.382 590.473 211.732 591.957 208.411C594.007 203.888 596.021 200.46 598 198.128C600.049 195.796 602.063 194.206 604.042 193.358C606.091 192.51 608.105 192.086 610.084 192.086C612.487 192.086 614.713 192.722 616.762 193.994C618.812 195.195 620.614 196.821 622.168 198.87C623.723 200.92 624.925 203.181 625.773 205.654C626.691 208.057 627.151 210.46 627.151 212.863C627.151 217.103 626.409 220.495 624.925 223.039C623.44 225.513 621.532 227.315 619.2 228.445C616.939 229.505 614.571 230.035 612.098 230.035C609.907 230.035 607.081 229.611 603.618 228.763C600.226 227.915 595.915 225.76 590.685 222.297L594.819 215.619C598.282 217.81 601.392 219.329 604.148 220.177C606.975 220.954 609.307 221.343 611.144 221.343C613.193 221.343 614.819 221.06 616.02 220.495C617.222 219.859 618.105 218.976 618.67 217.845C619.236 216.714 619.518 215.442 619.518 214.029C619.518 211.979 619.024 209.93 618.034 207.881C617.045 205.831 615.773 204.135 614.218 202.792C612.734 201.45 611.144 200.778 609.448 200.778C608.176 200.778 606.939 201.132 605.738 201.838C604.536 202.545 603.3 203.852 602.028 205.76C600.756 207.669 599.307 210.425 597.682 214.029C595.986 217.845 594.36 220.884 592.805 223.145C591.321 225.336 589.802 226.961 588.247 228.021C586.693 229.081 585.067 229.753 583.371 230.035C581.746 230.389 579.908 230.565 577.859 230.565ZM694.213 230.565C688.559 230.565 684.213 229.929 681.174 228.657C678.206 227.385 676.157 225.407 675.026 222.721C673.895 220.036 673.259 216.573 673.118 212.333L670.998 154.349H679.69L681.81 208.941C681.952 212.403 682.27 215.089 682.764 216.997C683.33 218.834 684.531 220.106 686.369 220.813C688.277 221.52 691.245 221.873 695.273 221.873C696.757 221.873 697.817 222.297 698.453 223.145C699.16 223.922 699.513 224.876 699.513 226.007C699.513 227.138 699.018 228.198 698.029 229.187C697.04 230.106 695.768 230.565 694.213 230.565ZM694.215 230.565L695.275 221.873H723.896C725.38 221.873 726.44 222.297 727.076 223.145C727.782 223.922 728.136 224.876 728.136 226.007C728.136 227.138 727.641 228.198 726.652 229.187C725.662 230.106 724.39 230.565 722.836 230.565H694.215ZM722.786 230.565L723.846 221.873H752.467C753.951 221.873 755.011 222.297 755.647 223.145C756.354 223.922 756.707 224.876 756.707 226.007C756.707 227.138 756.212 228.198 755.223 229.187C754.234 230.106 752.962 230.565 751.407 230.565H722.786ZM751.357 230.565L752.417 221.873H781.038C782.522 221.873 783.582 222.297 784.218 223.145C784.925 223.922 785.278 224.876 785.278 226.007C785.278 227.138 784.784 228.198 783.794 229.187C782.805 230.106 781.533 230.565 779.978 230.565H751.357ZM779.928 230.565L780.989 221.873H809.61C811.094 221.873 812.154 222.297 812.79 223.145C813.496 223.922 813.85 224.876 813.85 226.007C813.85 227.138 813.355 228.198 812.366 229.187C811.376 230.106 810.104 230.565 808.55 230.565H779.928ZM808.5 230.565L809.56 221.873H838.181C839.665 221.873 840.725 222.297 841.361 223.145C842.068 223.922 842.421 224.876 842.421 226.007C842.421 227.138 841.926 228.198 840.937 229.187C839.948 230.106 838.676 230.565 837.121 230.565H808.5ZM837.071 230.565L838.131 221.873H866.752C868.236 221.873 869.296 222.297 869.932 223.145C870.639 223.922 870.992 224.876 870.992 226.007C870.992 227.138 870.498 228.198 869.508 229.187C868.519 230.106 867.247 230.565 865.692 230.565H837.071ZM865.642 230.565L866.702 221.873H895.323C896.808 221.873 897.868 222.297 898.504 223.145C899.21 223.922 899.564 224.876 899.564 226.007C899.564 227.138 899.069 228.198 898.08 229.187C897.09 230.106 895.818 230.565 894.263 230.565H865.642ZM894.214 230.565L895.274 221.873H923.895C925.379 221.873 926.439 222.297 927.075 223.145C927.782 223.922 928.135 224.876 928.135 226.007C928.135 227.138 927.64 228.198 926.651 229.187C925.662 230.106 924.389 230.565 922.835 230.565H894.214ZM922.785 230.565L923.845 221.873H952.466C953.95 221.873 955.01 222.297 955.646 223.145C956.353 223.922 956.706 224.876 956.706 226.007C956.706 227.138 956.212 228.198 955.222 229.187C954.233 230.106 952.961 230.565 951.406 230.565H922.785ZM951.356 230.565L952.416 221.873H981.037C982.521 221.873 983.582 222.297 984.218 223.145C984.924 223.922 985.278 224.876 985.278 226.007C985.278 227.138 984.783 228.198 983.794 229.187C982.804 230.106 981.532 230.565 979.977 230.565H951.356ZM979.928 230.565L980.988 221.873H1009.61C1011.09 221.873 1012.15 222.297 1012.79 223.145C1013.5 223.922 1013.85 224.876 1013.85 226.007C1013.85 227.138 1013.35 228.198 1012.36 229.187C1011.38 230.106 1010.1 230.565 1008.55 230.565H979.928ZM1008.5 230.565L1009.56 221.873H1038.18C1039.66 221.873 1040.72 222.297 1041.36 223.145C1042.07 223.922 1042.42 224.876 1042.42 226.007C1042.42 227.138 1041.93 228.198 1040.94 229.187C1039.95 230.106 1038.67 230.565 1037.12 230.565H1008.5ZM1037.07 230.565L1038.13 221.873H1066.75C1068.24 221.873 1069.3 222.297 1069.93 223.145C1070.64 223.922 1070.99 224.876 1070.99 226.007C1070.99 227.138 1070.5 228.198 1069.51 229.187C1068.52 230.106 1067.25 230.565 1065.69 230.565H1037.07ZM1065.64 230.565L1066.7 221.873C1070.87 221.873 1074.12 221.732 1076.45 221.449C1078.79 221.096 1080.45 220.283 1081.44 219.011C1082.43 217.668 1082.92 215.583 1082.92 212.757C1082.92 210.99 1082.64 208.905 1082.07 206.503C1081.51 204.029 1080.76 201.414 1079.85 198.658C1078.93 195.902 1077.94 193.181 1076.88 190.496L1085.46 187.316C1086.38 189.577 1087.23 192.157 1088.01 195.054C1088.86 197.952 1089.56 200.814 1090.13 203.64C1090.69 206.467 1090.98 208.941 1090.98 211.061C1090.98 214.594 1090.48 217.598 1089.49 220.071C1088.57 222.544 1087.09 224.558 1085.04 226.113C1082.99 227.668 1080.34 228.799 1077.09 229.505C1073.91 230.212 1070.09 230.565 1065.64 230.565ZM1085.25 250.6C1083.77 250.6 1082.5 250.07 1081.44 249.01C1080.45 248.021 1079.95 246.819 1079.95 245.406C1079.95 243.992 1080.45 242.756 1081.44 241.696C1082.5 240.636 1083.77 240.106 1085.25 240.106C1086.67 240.106 1087.87 240.636 1088.86 241.696C1089.92 242.756 1090.45 243.992 1090.45 245.406C1090.45 246.819 1089.92 248.021 1088.86 249.01C1087.87 250.07 1086.67 250.6 1085.25 250.6ZM1070.73 250.6C1069.25 250.6 1067.97 250.07 1066.91 249.01C1065.92 248.021 1065.43 246.819 1065.43 245.406C1065.43 243.992 1065.92 242.756 1066.91 241.696C1067.97 240.636 1069.25 240.106 1070.73 240.106C1072.14 240.106 1073.34 240.636 1074.33 241.696C1075.39 242.756 1075.92 243.992 1075.92 245.406C1075.92 246.819 1075.39 248.021 1074.33 249.01C1073.34 250.07 1072.14 250.6 1070.73 250.6ZM1107.07 230.035L1104.95 154.349H1113.54L1115.66 230.035H1107.07ZM1120.31 254.628L1117.24 246.572C1122.39 244.876 1126.67 242.932 1130.06 240.742C1133.52 238.551 1136.25 236.219 1138.22 233.745C1140.27 231.272 1141.72 228.763 1142.57 226.219C1143.42 223.604 1143.84 221.096 1143.84 218.693C1143.84 215.23 1143.07 211.732 1141.51 208.199C1140.03 204.594 1138.37 201.202 1136.53 198.022L1144.27 194.1C1145.61 196.573 1146.78 199.012 1147.76 201.414C1148.82 203.817 1149.74 206.078 1150.52 208.199C1151.37 210.319 1152.04 212.262 1152.53 214.029C1153.52 217.068 1154.8 219.152 1156.35 220.283C1157.98 221.343 1160.17 221.873 1162.92 221.873C1164.41 221.873 1165.47 222.297 1166.1 223.145C1166.81 223.922 1167.16 224.876 1167.16 226.007C1167.16 227.138 1166.67 228.198 1165.68 229.187C1164.69 230.106 1163.42 230.565 1161.86 230.565C1158.75 230.565 1156.21 230.035 1154.23 228.975C1152.32 227.845 1150.87 226.396 1149.88 224.629C1148.9 222.792 1148.22 220.884 1147.87 218.905L1151.26 220.813C1151.26 225.477 1150.2 229.717 1148.08 233.533C1146.03 237.42 1143.38 240.777 1140.13 243.604C1136.88 246.501 1133.49 248.869 1129.96 250.706C1126.42 252.543 1123.21 253.851 1120.31 254.628ZM1137.16 181.91C1135.68 181.91 1134.41 181.415 1133.35 180.426C1132.36 179.366 1131.86 178.129 1131.86 176.715C1131.86 175.302 1132.36 174.065 1133.35 173.005C1134.41 171.945 1135.68 171.415 1137.16 171.415C1138.58 171.415 1139.78 171.945 1140.77 173.005C1141.83 174.065 1142.36 175.302 1142.36 176.715C1142.36 178.129 1141.83 179.366 1140.77 180.426C1139.78 181.415 1138.58 181.91 1137.16 181.91ZM1161.91 230.565L1162.97 221.873C1164.95 221.873 1166.61 221.449 1167.96 220.601C1169.3 219.753 1170.61 218.34 1171.88 216.361C1173.15 214.382 1174.53 211.732 1176.01 208.411C1178.06 203.888 1180.08 200.46 1182.06 198.128C1184.1 195.796 1186.12 194.206 1188.1 193.358C1190.15 192.51 1192.16 192.086 1194.14 192.086C1196.54 192.086 1198.77 192.722 1200.82 193.994C1202.87 195.195 1204.67 196.821 1206.22 198.87C1207.78 200.92 1208.98 203.181 1209.83 205.654C1210.75 208.057 1211.21 210.46 1211.21 212.863C1211.21 217.103 1210.46 220.495 1208.98 223.039C1207.5 225.513 1205.59 227.315 1203.26 228.445C1200.99 229.505 1198.63 230.035 1196.15 230.035C1193.96 230.035 1191.14 229.611 1187.67 228.763C1184.28 227.915 1179.97 225.76 1174.74 222.297L1178.88 215.619C1182.34 217.81 1185.45 219.329 1188.2 220.177C1191.03 220.954 1193.36 221.343 1195.2 221.343C1197.25 221.343 1198.87 221.06 1200.08 220.495C1201.28 219.859 1202.16 218.976 1202.73 217.845C1203.29 216.714 1203.57 215.442 1203.57 214.029C1203.57 211.979 1203.08 209.93 1202.09 207.881C1201.1 205.831 1199.83 204.135 1198.27 202.792C1196.79 201.45 1195.2 200.778 1193.5 200.778C1192.23 200.778 1190.99 201.132 1189.79 201.838C1188.59 202.545 1187.36 203.852 1186.08 205.76C1184.81 207.669 1183.36 210.425 1181.74 214.029C1180.04 217.845 1178.42 220.884 1176.86 223.145C1175.38 225.336 1173.86 226.961 1172.3 228.021C1170.75 229.081 1169.12 229.753 1167.43 230.035C1165.8 230.389 1163.96 230.565 1161.91 230.565Z" fill="#680307"/>
</svg>
