<svg width="402" height="241" viewBox="0 0 402 241" fill="none" xmlns="http://www.w3.org/2000/svg">
<path d="M401.703 201.037C401.703 198.365 400.103 198.036 397.893 198.069C388.329 198.152 378.731 197.756 369.183 198.316C363.229 198.647 359.897 196.601 356.996 191.391C349.409 177.604 341.148 164.196 333.283 150.575C331.896 148.167 330.363 147.376 327.675 147.425C319.875 147.591 312.041 147.672 304.273 147.425C300.515 147.293 298.535 148.695 296.737 151.927C289.103 165.516 281.104 178.889 273.485 192.495C271.111 196.733 268.175 198.613 263.228 198.283C262.272 198.233 261.299 198.168 260.341 198.152V57.4547C260.341 25.7587 234.584 -7.17365e-06 202.888 -7.17365e-06C171.208 -7.17365e-06 145.449 25.7587 145.449 57.4547V198.441C142.629 198.475 140.288 198.557 138.689 198.64C132.703 198.969 129.371 196.924 126.501 191.713C118.883 177.927 110.604 164.52 102.755 150.899C101.403 148.491 99.836 147.699 97.148 147.748C89.348 147.913 81.5467 147.996 73.7307 147.748C69.988 147.616 68.008 149.019 66.2107 152.251C58.592 165.839 50.5773 179.213 42.9587 192.819C40.584 197.056 37.632 198.936 32.7347 198.607C26.5507 198.227 20.3493 198.441 14.1653 198.409H0V240.641C18.1067 240.641 35.7854 240.56 53.4467 240.692C58.46 240.741 61.7907 238.647 64.116 234.343C66.92 229.197 69.7893 224.068 72.7413 218.956C76.716 211.981 80.8053 205.088 85.356 197.255C91.6893 208.535 98.088 218.627 103.216 229.329C107.356 237.937 112.963 241.153 122.577 240.659C127.904 240.395 136.183 240.279 145.449 240.247V240.232C154.981 240.067 170.12 240.116 181.301 240.149V57.4547C181.301 45.532 190.981 35.852 202.888 35.852C214.811 35.852 224.491 45.532 224.491 57.4547V240.216H244.692C249.904 240.248 255.131 240.084 260.341 240.281V240.285C269.989 240.319 278.481 240.335 283.973 240.368C288.987 240.417 292.335 238.324 294.644 234.019C297.431 228.873 300.332 223.745 303.252 218.633C307.243 211.657 311.332 204.764 315.884 196.931C322.217 208.211 328.599 218.303 333.744 229.005C337.883 237.615 343.489 240.829 353.088 240.335C368.935 239.511 384.883 240.121 401.703 240.121C401.703 226.581 401.669 213.817 401.703 201.037Z" fill="#680307"/>
</svg>
